<svg width="20" height="21" viewBox="0 0 20 21" fill="none" xmlns="http://www.w3.org/2000/svg">
<path fill-rule="evenodd" clip-rule="evenodd" d="M5.83333 3.84831C5.38333 3.86748 5.06 3.90998 4.77417 4.00665C4.28532 4.17033 3.8411 4.44516 3.47643 4.80954C3.11175 5.17393 2.83657 5.61793 2.6725 6.10665C2.5 6.62415 2.5 7.26248 2.5 8.54081C2.5 8.61998 2.5 8.65998 2.51083 8.69165C2.52106 8.7223 2.53829 8.75016 2.56114 8.77301C2.58399 8.79586 2.61184 8.81308 2.6425 8.82331C2.67417 8.83415 2.71417 8.83415 2.79417 8.83415H17.2058C17.2858 8.83415 17.3258 8.83415 17.3575 8.82331C17.3882 8.81308 17.416 8.79586 17.4389 8.77301C17.4617 8.75016 17.4789 8.7223 17.4892 8.69165C17.5 8.65915 17.5 8.61915 17.5 8.53915C17.5 7.26165 17.5 6.62248 17.3275 6.10748C17.1637 5.61846 16.8886 5.17412 16.5239 4.80944C16.1592 4.44475 15.7149 4.16966 15.2258 4.00581C14.94 3.90998 14.6158 3.86748 14.1667 3.84831V5.91665C14.1667 6.24817 14.035 6.56611 13.8005 6.80053C13.5661 7.03495 13.2482 7.16665 12.9167 7.16665C12.5851 7.16665 12.2672 7.03495 12.0328 6.80053C11.7984 6.56611 11.6667 6.24817 11.6667 5.91665V3.83331H8.33333V5.91665C8.33333 6.24817 8.20164 6.56611 7.96722 6.80053C7.7328 7.03495 7.41485 7.16665 7.08333 7.16665C6.75181 7.16665 6.43387 7.03495 6.19945 6.80053C5.96503 6.56611 5.83333 6.24817 5.83333 5.91665V3.84831Z" fill="#3E435B"/>
<path d="M2.5 10.0833C2.5 9.88663 2.5 9.78829 2.56083 9.72746C2.62167 9.66663 2.72 9.66663 2.91667 9.66663H17.0833C17.28 9.66663 17.3783 9.66663 17.4392 9.72746C17.5 9.78829 17.5 9.88663 17.5 10.0833V10.5C17.5 13.6425 17.5 15.2141 16.5233 16.19C15.5467 17.1658 13.9758 17.1666 10.8333 17.1666H9.16667C6.02417 17.1666 4.4525 17.1666 3.47667 16.19C2.50083 15.2133 2.5 13.6425 2.5 10.5V10.0833Z" fill="#DCDCDC"/>
<path d="M7.08337 2.58331V5.91665M12.9167 2.58331V5.91665" stroke="#3E435B" stroke-linecap="round"/>
</svg>
