<svg width="48" height="48" viewBox="0 0 48 48" fill="none" xmlns="http://www.w3.org/2000/svg">
<path d="M23.292 41.93C22.6488 41.8085 22.0555 41.5007 21.5858 41.0449C21.1161 40.589 20.7907 40.0052 20.65 39.366C20.5222 38.8384 20.2716 38.3484 19.9186 37.936C19.5656 37.5236 19.1202 37.2003 18.6187 36.9925C18.1172 36.7847 17.5737 36.6983 17.0324 36.7403C16.4912 36.7822 15.9675 36.9514 15.504 37.234C12.418 39.114 8.884 35.582 10.764 32.494C11.0462 32.0307 11.2151 31.5073 11.257 30.9665C11.2988 30.4256 11.2125 29.8825 11.0049 29.3812C10.7974 28.88 10.4745 28.4348 10.0625 28.0819C9.65057 27.729 9.16113 27.4782 8.634 27.35C5.122 26.498 5.122 21.502 8.634 20.65C9.1616 20.5222 9.65156 20.2716 10.064 19.9186C10.4764 19.5656 10.7997 19.1202 11.0075 18.6187C11.2153 18.1172 11.3017 17.5737 11.2597 17.0324C11.2178 16.4912 11.0486 15.9675 10.766 15.504C8.886 12.418 12.418 8.884 15.506 10.764C17.506 11.98 20.098 10.904 20.65 8.634C21.502 5.122 26.498 5.122 27.35 8.634C27.4778 9.1616 27.7284 9.65156 28.0814 10.064C28.4344 10.4764 28.8798 10.7997 29.3813 11.0075C29.8828 11.2153 30.4263 11.3017 30.9676 11.2597C31.5088 11.2178 32.0325 11.0486 32.496 10.766C35.582 8.886 39.116 12.418 37.236 15.506C36.9538 15.9693 36.7849 16.4927 36.743 17.0335C36.7012 17.5744 36.7875 18.1175 36.9951 18.6188C37.2026 19.12 37.5255 19.5652 37.9375 19.9181C38.3494 20.2711 38.8389 20.5218 39.366 20.65C40.822 21.004 41.674 22.07 41.924 23.256" stroke="white" stroke-width="4" stroke-linecap="round" stroke-linejoin="round"/>
<path d="M29.97 23.3881C29.8544 22.2594 29.4212 21.1866 28.7206 20.2942C28.0199 19.4017 27.0806 18.7263 26.0116 18.3461C24.9426 17.9659 23.7877 17.8967 22.6809 18.1463C21.5742 18.396 20.5609 18.9544 19.7586 19.7566C18.9563 20.5589 18.3979 21.5722 18.1483 22.679C17.8986 23.7858 17.9679 24.9407 18.3481 26.0097C18.7282 27.0787 19.4037 28.018 20.2961 28.7186C21.1885 29.4192 22.2613 29.8525 23.39 29.9681M40.4 40.4001L44 44.0001M30 36.0001C30 37.5914 30.6321 39.1175 31.7574 40.2427C32.8826 41.3679 34.4087 42.0001 36 42.0001C37.5913 42.0001 39.1174 41.3679 40.2426 40.2427C41.3679 39.1175 42 37.5914 42 36.0001C42 34.4088 41.3679 32.8826 40.2426 31.7574C39.1174 30.6322 37.5913 30.0001 36 30.0001C34.4087 30.0001 32.8826 30.6322 31.7574 31.7574C30.6321 32.8826 30 34.4088 30 36.0001Z" stroke="white" stroke-width="4" stroke-linecap="round" stroke-linejoin="round"/>
</svg>
