<svg width="247" height="231" viewBox="0 0 247 231" fill="none" xmlns="http://www.w3.org/2000/svg">
<path d="M136.242 1C121.917 21.9545 101.862 59.063 136.242 39.8611C170.623 20.6591 165.807 39.4801 159.102 51.2908C115.136 81.1605 44.2103 131.939 112.24 96.0954C180.27 60.2517 198.953 61.5014 199.792 66.6067C112.088 105.392 -36.3923 172.537 71.3215 130.842C205.964 78.7222 42.5186 161.016 128.242 130.842C196.82 106.702 115.821 148.063 66.7497 171.76C18.059 197.591 -50.9308 236.955 62.635 187.762C176.201 138.568 211.221 130.842 211.221 130.842C211.221 130.842 143.557 171.76 162.302 171.074C181.047 170.389 217.393 151.187 233.395 145.015C249.397 138.843 246.653 154.387 240.024 155.073C233.395 155.759 11.6775 229.732 31.0888 229.366C50.5 229 172.5 210 172.5 210" stroke="#3E435B" stroke-width="2"/>
</svg>
